HIERARCHY
ROOT Hips
{
  OFFSET 339.145 90.8604 236.464
  CHANNELS 6 Xposition Yposition Zposition Zrotation Xrotation Yrotation
  JOINT RightUpLeg
  {
    OFFSET -9.25213 -1.52769 -0.0353655
    CHANNELS 6 Xposition Yposition Zposition Zrotation Xrotation Yrotation
    JOINT RightLeg
    {
      OFFSET 0.0344394 -41.886 0.0906629
      CHANNELS 6 Xposition Yposition Zposition Zrotation Xrotation Yrotation
      JOINT RightFoot
      {
        OFFSET -0.415571 -42.0737 0.023027
        CHANNELS 6 Xposition Yposition Zposition Zrotation Xrotation Yrotation
        End Site
        {
          OFFSET 0 -7.69 17.5
        }
      }
    }
  }
  JOINT LeftUpLeg
  {
    OFFSET 9.3065 -1.66814 -0.0291548
    CHANNELS 6 Xposition Yposition Zposition Zrotation Xrotation Yrotation
    JOINT LeftLeg
    {
      OFFSET 0.0927147 -41.8573 -0.133879
      CHANNELS 6 Xposition Yposition Zposition Zrotation Xrotation Yrotation
      JOINT LeftFoot
      {
        OFFSET 0.17151 -41.5114 0.735469
        CHANNELS 6 Xposition Yposition Zposition Zrotation Xrotation Yrotation
        End Site
        {
          OFFSET 0 -7.69 17.5
        }
      }
    }
  }
  JOINT Spine
  {
    OFFSET 0.0101953 14.298 0.070761
    CHANNELS 6 Xposition Yposition Zposition Zrotation Xrotation Yrotation
    JOINT Spine1
    {
      OFFSET 0.0155452 9.71352 0.0242862
      CHANNELS 6 Xposition Yposition Zposition Zrotation Xrotation Yrotation
      JOINT Spine2
      {
        OFFSET 0.0489889 10.1172 -0.0106466
        CHANNELS 6 Xposition Yposition Zposition Zrotation Xrotation Yrotation
        JOINT Spine3
        {
          OFFSET 0.0366525 9.717 0.00535585
          CHANNELS 6 Xposition Yposition Zposition Zrotation Xrotation Yrotation
          JOINT Neck
          {
            OFFSET 0.0852486 10.3801 0.0251966
            CHANNELS 6 Xposition Yposition Zposition Zrotation Xrotation Yrotation
            JOINT Head
            {
              OFFSET 0.0739267 9.47652 0.0275438
              CHANNELS 6 Xposition Yposition Zposition Zrotation Xrotation Yrotation
              End Site
              {
                OFFSET 0 15.95 0
              }
            }
          }
          JOINT RightShoulder
          {
            OFFSET -3.15224 6.95772 0.0300988
            CHANNELS 6 Xposition Yposition Zposition Zrotation Xrotation Yrotation
            JOINT RightArm
            {
              OFFSET -12.7579 0.0411148 0.0791701
              CHANNELS 6 Xposition Yposition Zposition Zrotation Xrotation Yrotation
              JOINT RightForeArm
              {
                OFFSET -26.4969 0.0361336 0.259434
                CHANNELS 6 Xposition Yposition Zposition Zrotation Xrotation Yrotation
                JOINT RightHand
                {
                  OFFSET -25.9924 -0.0837334 0.191464
                  CHANNELS 6 Xposition Yposition Zposition Zrotation Xrotation Yrotation
                  JOINT RightHandThumb1
                  {
                    OFFSET -2.48905 0.190105 3.12053
                    CHANNELS 6 Xposition Yposition Zposition Zrotation Xrotation Yrotation
                    JOINT RightHandThumb2
                    {
                      OFFSET -3.68274 0 0
                      CHANNELS 6 Xposition Yposition Zposition Zrotation Xrotation Yrotation
                      JOINT RightHandThumb3
                      {
                        OFFSET -2.55832 0 0
                        CHANNELS 6 Xposition Yposition Zposition Zrotation Xrotation Yrotation
                        End Site
                        {
                          OFFSET -2.194 0 0
                        }
                      }
                    }
                  }
                  JOINT RightInHandIndex
                  {
                    OFFSET -3.22368 0.508421 1.97842
                    CHANNELS 6 Xposition Yposition Zposition Zrotation Xrotation Yrotation
                    JOINT RightHandIndex1
                    {
                      OFFSET -5.21684 -0.091368 0.999158
                      CHANNELS 6 Xposition Yposition Zposition Zrotation Xrotation Yrotation
                      JOINT RightHandIndex2
                      {
                        OFFSET -3.61937 0 0
                        CHANNELS 6 Xposition Yposition Zposition Zrotation Xrotation Yrotation
                        JOINT RightHandIndex3
                        {
                          OFFSET -2.0521 0 0
                          CHANNELS 6 Xposition Yposition Zposition Zrotation Xrotation Yrotation
                          End Site
                          {
                            OFFSET -1.805 0 0
                          }
                        }
                      }
                    }
                  }
                  JOINT RightInHandMiddle
                  {
                    OFFSET -3.38211 0.517263 0.756737
                    CHANNELS 6 Xposition Yposition Zposition Zrotation Xrotation Yrotation
                    JOINT RightHandMiddle1
                    {
                      OFFSET -5.17411 -0.084 0.313895
                      CHANNELS 6 Xposition Yposition Zposition Zrotation Xrotation Yrotation
                      JOINT RightHandMiddle2
                      {
                        OFFSET -3.94947 0 0
                        CHANNELS 6 Xposition Yposition Zposition Zrotation Xrotation Yrotation
                        JOINT RightHandMiddle3
                        {
                          OFFSET -2.47579 0 0
                          CHANNELS 6 Xposition Yposition Zposition Zrotation Xrotation Yrotation
                          End Site
                          {
                            OFFSET -1.975 0 0
                          }
                        }
                      }
                    }
                  }
                  JOINT RightInHandRing
                  {
                    OFFSET -3.36516 0.537895 -0.128947
                    CHANNELS 6 Xposition Yposition Zposition Zrotation Xrotation Yrotation
                    JOINT RightHandRing1
                    {
                      OFFSET -4.63474 -0.022105 -0.478947
                      CHANNELS 6 Xposition Yposition Zposition Zrotation Xrotation Yrotation
                      JOINT RightHandRing2
                      {
                        OFFSET -3.44238 0 0
                        CHANNELS 6 Xposition Yposition Zposition Zrotation Xrotation Yrotation
                        JOINT RightHandRing3
                        {
                          OFFSET -2.3881 0 0
                          CHANNELS 6 Xposition Yposition Zposition Zrotation Xrotation Yrotation
                          End Site
                          {
                            OFFSET -1.857 0 0
                          }
                        }
                      }
                    }
                  }
                  JOINT RightInHandPinky
                  {
                    OFFSET -3.16105 0.469368 -1.20179
                    CHANNELS 6 Xposition Yposition Zposition Zrotation Xrotation Yrotation
                    JOINT RightHandPinky1
                    {
                      OFFSET -4.14105 -0.022105 -1.09053
                      CHANNELS 6 Xposition Yposition Zposition Zrotation Xrotation Yrotation
                      JOINT RightHandPinky2
                      {
                        OFFSET -2.75653 0 0
                        CHANNELS 6 Xposition Yposition Zposition Zrotation Xrotation Yrotation
                        JOINT RightHandPinky3
                        {
                          OFFSET -1.74189 0 0
                          CHANNELS 6 Xposition Yposition Zposition Zrotation Xrotation Yrotation
                          End Site
                          {
                            OFFSET -1.645 0 0
                          }
                        }
                      }
                    }
                  }
                }
              }
            }
          }
          JOINT LeftShoulder
          {
            OFFSET 3.25038 6.91678 -0.0281312
            CHANNELS 6 Xposition Yposition Zposition Zrotation Xrotation Yrotation
            JOINT LeftArm
            {
              OFFSET 12.7785 0.0134102 -0.0213482
              CHANNELS 6 Xposition Yposition Zposition Zrotation Xrotation Yrotation
              JOINT LeftForeArm
              {
                OFFSET 26.5046 -0.0446277 0.0404034
                CHANNELS 6 Xposition Yposition Zposition Zrotation Xrotation Yrotation
                JOINT LeftHand
                {
                  OFFSET 26.0002 -0.0466935 -0.0173032
                  CHANNELS 6 Xposition Yposition Zposition Zrotation Xrotation Yrotation
                  JOINT LeftHandThumb1
                  {
                    OFFSET 2.48905 0.190105 3.12053
                    CHANNELS 6 Xposition Yposition Zposition Zrotation Xrotation Yrotation
                    JOINT LeftHandThumb2
                    {
                      OFFSET 3.68274 0 0
                      CHANNELS 6 Xposition Yposition Zposition Zrotation Xrotation Yrotation
                      JOINT LeftHandThumb3
                      {
                        OFFSET 2.55832 0 0
                        CHANNELS 6 Xposition Yposition Zposition Zrotation Xrotation Yrotation
                        End Site
                        {
                          OFFSET 2.194 0 0
                        }
                      }
                    }
                  }
                  JOINT LeftInHandIndex
                  {
                    OFFSET 3.22368 0.508421 1.97842
                    CHANNELS 6 Xposition Yposition Zposition Zrotation Xrotation Yrotation
                    JOINT LeftHandIndex1
                    {
                      OFFSET 5.21684 -0.091368 0.999158
                      CHANNELS 6 Xposition Yposition Zposition Zrotation Xrotation Yrotation
                      JOINT LeftHandIndex2
                      {
                        OFFSET 3.61937 0 0
                        CHANNELS 6 Xposition Yposition Zposition Zrotation Xrotation Yrotation
                        JOINT LeftHandIndex3
                        {
                          OFFSET 2.0521 0 0
                          CHANNELS 6 Xposition Yposition Zposition Zrotation Xrotation Yrotation
                          End Site
                          {
                            OFFSET 1.805 0 0
                          }
                        }
                      }
                    }
                  }
                  JOINT LeftInHandMiddle
                  {
                    OFFSET 3.38211 0.517263 0.756737
                    CHANNELS 6 Xposition Yposition Zposition Zrotation Xrotation Yrotation
                    JOINT LeftHandMiddle1
                    {
                      OFFSET 5.17411 -0.084 0.313895
                      CHANNELS 6 Xposition Yposition Zposition Zrotation Xrotation Yrotation
                      JOINT LeftHandMiddle2
                      {
                        OFFSET 3.94947 0 0
                        CHANNELS 6 Xposition Yposition Zposition Zrotation Xrotation Yrotation
                        JOINT LeftHandMiddle3
                        {
                          OFFSET 2.47579 0 0
                          CHANNELS 6 Xposition Yposition Zposition Zrotation Xrotation Yrotation
                          End Site
                          {
                            OFFSET 1.975 0 0
                          }
                        }
                      }
                    }
                  }
                  JOINT LeftInHandRing
                  {
                    OFFSET 3.36516 0.537895 -0.128947
                    CHANNELS 6 Xposition Yposition Zposition Zrotation Xrotation Yrotation
                    JOINT LeftHandRing1
                    {
                      OFFSET 4.63474 -0.022105 -0.478947
                      CHANNELS 6 Xposition Yposition Zposition Zrotation Xrotation Yrotation
                      JOINT LeftHandRing2
                      {
                        OFFSET 3.44238 0 0
                        CHANNELS 6 Xposition Yposition Zposition Zrotation Xrotation Yrotation
                        JOINT LeftHandRing3
                        {
                          OFFSET 2.3881 0 0
                          CHANNELS 6 Xposition Yposition Zposition Zrotation Xrotation Yrotation
                          End Site
                          {
                            OFFSET 1.857 0 0
                          }
                        }
                      }
                    }
                  }
                  JOINT LeftInHandPinky
                  {
                    OFFSET 3.16105 0.469368 -1.20179
                    CHANNELS 6 Xposition Yposition Zposition Zrotation Xrotation Yrotation
                    JOINT LeftHandPinky1
                    {
                      OFFSET 4.14105 -0.022105 -1.09053
                      CHANNELS 6 Xposition Yposition Zposition Zrotation Xrotation Yrotation
                      JOINT LeftHandPinky2
                      {
                        OFFSET 2.75653 0 0
                        CHANNELS 6 Xposition Yposition Zposition Zrotation Xrotation Yrotation
                        JOINT LeftHandPinky3
                        {
                          OFFSET 1.74189 0 0
                          CHANNELS 6 Xposition Yposition Zposition Zrotation Xrotation Yrotation
                          End Site
                          {
                            OFFSET 1.645 0 0
                          }
                        }
                      }
                    }
                  }
                }
              }
            }
          }
        }
      }
    }
  }
}
MOTION
Frames:	3
Frame Time:	0.00833333
339.145 90.8604 236.464 26.8898 14.1379 -69.5453 -9.25213 -1.52769 -0.0353655 -7.13594 -49.8639 -6.43322 0.0344394 -41.886 0.0906629 -1.64556 21.9359 -13.245 -0.415571 -42.0737 0.023027 8.43003 -0.00158934 23.4228 9.3065 -1.66814 -0.0291548 16.0514 -41.8486 6.94843 0.0927147 -41.8573 -0.133879 3.71337 26.5789 -6.84375 0.17151 -41.5114 0.735469 -11.349 -13.3633 -15.9216 0.0101953 14.298 0.070761 -8.73759 13.0933 15.187 0.0155452 9.71352 0.0242862 -1.85914 3.5028 3.55038 0.0489889 10.1172 -0.0106466 -3.08987 5.64767 5.76343 0.0366525 9.717 0.00535585 -0.310388 -0.390518 -0.455536 0.0852486 10.3801 0.0251966 -0.310702 -0.394261 -0.453431 0.0739267 9.47652 0.0275438 -6.13095 -7.34321 -7.94642 -3.15224 6.95772 0.0300988 1.30803 -10.8557 24.4674 -12.7579 0.0411148 0.0791701 72.3641 -0.484028 50.6388 -26.4969 0.0361336 0.259434 24.1628 -49.9526 13.5545 -25.9924 -0.0837334 0.191464 18.7741 -20.8192 -15.0843 -2.48905 0.190105 3.12053 28.184 10.7294 19.1592 -3.68274 1.42109e-14 0 -1.97282e-14 -1.98785e-15 -10 -2.55832 -1.42109e-14 0 -1.03899e-14 -3.97569e-15 -10 -3.22368 0.508421 1.97842 -6.36111e-15 0 1.59028e-15 -5.21684 -0.091368 0.999158 19.9818 0.871897 2.3964 -3.61937 0 0 24 -5.1684e-15 -3.18055e-14 -2.0521 -1.42109e-14 -2.84217e-14 20 0 -2.22639e-14 -3.38211 0.517263 0.756737 -6.36111e-15 0 1.59028e-15 -5.17411 -0.084 0.313895 20 1.59028e-15 -1.90833e-14 -3.94947 1.42109e-14 0 24 -4.37326e-15 -2.8625e-14 -2.47579 0 0 20 -2.38542e-15 -1.90833e-14 -3.36516 0.537895 -0.128947 -6.36111e-15 0 1.59028e-15 -4.63474 -0.022105 -0.478947 19.9748 -1.02565 -2.81938 -3.44238 1.42109e-14 -5.68434e-14 24 -7.55382e-15 -2.8625e-14 -2.3881 -2.13163e-14 0 20 0 -3.18055e-14 -3.16105 0.469368 -1.20179 -6.36111e-15 0 1.59028e-15 -4.14105 -0.022105 -1.09053 19.7815 -3.00948 -8.30515 -2.75653 2.84217e-14 0 24 -1.03368e-14 -3.18055e-14 -1.74189 -1.42109e-14 0 20 -9.54166e-15 -2.22639e-14 3.25038 6.91678 -0.0281312 15.7158 -13.4939 -29.4862 12.7785 0.0134102 -0.0213482 -37.6623 33.226 -67.0489 26.5046 -0.0446277 0.0404034 10.9539 -55.8737 10.8439 26.0002 -0.0466935 -0.0173032 -21.7631 -23.6036 6.29071 2.48905 0.190105 3.12053 -28.184 10.7294 -19.1592 3.68274 2.84217e-14 0 1.29185e-14 0 10 2.55832 0 -2.84217e-14 -1.93777e-14 0 10 3.22368 0.508421 1.97842 6.36111e-15 9.54166e-15 1.59028e-15 5.21684 -0.091368 0.999158 -19.9818 0.871897 -2.3964 3.61937 -5.68434e-14 0 -24 4.77083e-15 -0 2.0521 0 -5.68434e-14 -20 -1.98785e-15 3.18055e-15 3.38211 0.517263 0.756737 6.36111e-15 9.54166e-15 1.59028e-15 5.17411 -0.084 0.313895 -20 6.36111e-15 -0 3.94947 0 -2.84217e-14 -24 0 -0 2.47579 0 0 -20 2.5842e-15 6.36111e-15 3.36516 0.537895 -0.128947 6.36111e-15 9.54166e-15 1.59028e-15 4.63474 -0.022105 -0.478947 -19.9748 -1.02565 2.81938 3.44238 0 -2.84217e-14 -24 -1.59028e-15 9.54166e-15 2.3881 2.84217e-14 0 -20 1.98785e-15 -6.36111e-15 3.16105 0.469368 -1.20179 6.36111e-15 9.54166e-15 1.59028e-15 4.14105 -0.022105 -1.09053 -19.7815 -3.00948 8.30515 2.75653 0 2.84217e-14 -24 7.95139e-16 -3.18055e-15 1.74189 0 -2.84217e-14 -20 0 3.18055e-15 
339.166 90.8538 236.443 26.9259 14.0248 -69.7951 -9.2439 -1.52365 -0.0366209 -6.94246 -49.8772 -6.23241 0.0497567 -41.8863 0.0926609 -1.72989 21.7475 -13.0704 -0.451433 -42.0722 -0.0132664 8.37636 0.171346 23.4292 9.307 -1.66844 -0.0270936 16.1533 -41.827 6.98919 0.0936865 -41.8567 -0.14017 3.54868 26.7543 -6.69235 0.197323 -41.5175 0.759652 -11.2818 -13.4891 -15.7762 0.009958 14.2979 0.0740824 -8.73241 13.0604 15.1423 0.0164579 9.71351 0.0246973 -1.85946 3.49278 3.53895 0.0491473 10.1172 -0.0116034 -3.09128 5.63146 5.7449 0.0367973 9.717 0.00507148 -0.3184 -0.389021 -0.445576 0.0943929 10.3798 0.0268485 -0.318723 -0.392988 -0.443438 0.0807903 9.4766 0.0293348 -6.26342 -7.31735 -7.7697 -3.14957 6.95855 0.0324279 1.33974 -10.6189 24.3748 -12.7574 0.0416908 0.08198 72.5694 -0.713873 50.4361 -26.4947 0.0343535 0.256599 25.5157 -49.8402 15.1099 -25.9925 -0.0815305 0.186094 18.8701 -20.9905 -14.7607 -2.48905 0.190105 3.12053 28.184 10.7294 19.1592 -3.68274 0 0 1.31989e-14 1.59028e-15 -10 -2.55832 0 5.68434e-14 7.16026e-15 3.97569e-15 -10 -3.22368 0.508421 1.97842 6.36111e-15 0 3.18055e-15 -5.21684 -0.091368 0.999158 19.9818 0.871897 2.3964 -3.61937 0 -2.84217e-14 24 7.55382e-15 2.54444e-14 -2.0521 1.42109e-14 0 20 7.95139e-16 3.81667e-14 -3.38211 0.517263 0.756737 6.36111e-15 0 3.18055e-15 -5.17411 -0.084 0.313895 20 7.95139e-15 6.36111e-15 -3.94947 0 0 24 1.43125e-14 9.54166e-15 -2.47579 -1.42109e-14 2.84217e-14 20 7.95139e-15 3.49861e-14 -3.36516 0.537895 -0.128947 6.36111e-15 0 3.18055e-15 -4.63474 -0.022105 -0.478947 19.9748 -1.02565 -2.81938 -3.44238 -1.42109e-14 -2.84217e-14 24 6.75868e-15 1.59028e-14 -2.3881 -7.10543e-15 -5.68434e-14 20 -2.38542e-15 2.22639e-14 -3.16105 0.469368 -1.20179 6.36111e-15 0 3.18055e-15 -4.14105 -0.022105 -1.09053 19.7815 -3.00948 -8.30515 -2.75653 0 0 24 5.56597e-15 1.59028e-14 -1.74189 0 0 20 5.56597e-15 1.27222e-14 3.25154 6.91596 -0.0288382 15.6779 -13.4107 -29.5871 12.7707 0.0122388 -0.0228806 -37.5261 33.1865 -67.0514 26.5046 -0.0525986 0.0384371 10.8894 -54.8393 10.7341 26 -0.046735 -0.0170178 -21.574 -23.668 6.35014 2.48905 0.190105 3.12053 -28.184 10.7294 -19.1592 3.68274 -2.84217e-14 -2.84217e-14 1.68245e-15 -9.54166e-15 10 2.55832 0 -5.68434e-14 3.79044e-15 -3.18055e-15 10 3.22368 0.508421 1.97842 3.18055e-15 -3.18055e-15 -3.18055e-15 5.21684 -0.091368 0.999158 -19.9818 0.871897 -2.3964 3.61937 2.84217e-14 -2.84217e-14 -24 4.77083e-15 -3.18055e-15 2.0521 0 2.84217e-14 -20 1.39149e-15 9.54166e-15 3.38211 0.517263 0.756737 3.18055e-15 -3.18055e-15 -3.18055e-15 5.17411 -0.084 0.313895 -20 0 -3.18055e-15 3.94947 5.68434e-14 -2.84217e-14 -24 -1.59028e-15 3.18055e-15 2.47579 -1.42109e-14 -2.84217e-14 -20 -4.96962e-15 -6.36111e-15 3.36516 0.537895 -0.128947 3.18055e-15 -3.18055e-15 -3.18055e-15 4.63474 -0.022105 -0.478947 -19.9748 -1.02565 2.81938 3.44238 0 -2.84217e-14 -24 8.74653e-15 -1.27222e-14 2.3881 0 2.84217e-14 -20 1.59028e-15 -0 3.16105 0.469368 -1.20179 3.18055e-15 -3.18055e-15 -3.18055e-15 4.14105 -0.022105 -1.09053 -19.7815 -3.00948 8.30515 2.75653 0 0 -24 -7.95139e-16 3.18055e-15 1.74189 0 5.68434e-14 -20 2.78299e-15 -6.36111e-15 
339.199 90.8486 236.426 26.959 13.9003 -70.0533 -9.24113 -1.522 -0.0378117 -6.73931 -49.8871 -6.03192 0.060724 -41.8866 0.0949232 -1.825 21.5552 -12.905 -0.487995 -42.0722 -0.0388734 8.31679 0.358756 23.4657 9.3075 -1.66877 -0.0182499 16.2267 -41.791 7.00507 0.0928381 -41.8561 -0.14338 3.39325 26.9221 -6.5208 0.228395 -41.5225 0.781973 -11.2156 -13.6156 -15.6295 0.00974398 14.2978 0.0777264 -8.72393 13.0348 15.0857 0.0173944 9.7135 0.0250818 -1.85927 3.48401 3.52432 0.0492882 10.1172 -0.0131256 -3.09027 5.61702 5.7213 0.0369425 9.717 0.00477062 -0.327294 -0.38782 -0.434062 0.105298 10.3795 0.0282225 -0.327633 -0.391617 -0.431892 0.0883085 9.47669 0.0304041 -6.41059 -7.29582 -7.56541 -3.16002 6.9374 0.0087564 1.2494 -10.4803 24.5014 -12.7567 0.0263004 0.0547767 72.9866 -1.21644 50.0952 -26.4959 -0.0580988 0.129929 28.1524 -51.8119 18.4204 -25.9924 -0.036498 0.0369338 18.272 -19.1886 -15.9572 -2.48905 0.190105 3.12053 28.184 10.7294 19.1592 -3.68274 0 -5.68434e-14 -4.70423e-15 7.95139e-16 -10 -2.55832 -1.42109e-14 0 -7.02006e-15 -3.18055e-15 -10 -3.22368 0.508421 1.97842 -3.18055e-15 -1.59028e-15 -0 -5.21684 -0.091368 0.999158 19.9818 0.871897 2.3964 -3.61937 0 -2.84217e-14 24 -4.77083e-15 -1.90833e-14 -2.0521 2.13163e-14 2.84217e-14 20 2.38542e-15 -1.59028e-14 -3.38211 0.517263 0.756737 -3.18055e-15 -1.59028e-15 -0 -5.17411 -0.084 0.313895 20 -3.18055e-15 -9.54166e-15 -3.94947 0 5.68434e-14 24 -9.14409e-15 -1.59028e-14 -2.47579 -2.84217e-14 5.68434e-14 20 7.95139e-15 -3.18055e-15 -3.36516 0.537895 -0.128947 -3.18055e-15 -1.59028e-15 -0 -4.63474 -0.022105 -0.478947 19.9748 -1.02565 -2.81938 -3.44238 -1.42109e-14 0 24 -3.77691e-15 -2.54444e-14 -2.3881 1.42109e-14 0 20 1.59028e-15 -3.18055e-15 -3.16105 0.469368 -1.20179 -3.18055e-15 -1.59028e-15 -0 -4.14105 -0.022105 -1.09053 19.7815 -3.00948 -8.30515 -2.75653 -1.42109e-14 2.84217e-14 24 -7.15625e-15 -0 -1.74189 2.84217e-14 -2.84217e-14 20 -5.56597e-15 -6.36111e-15 3.25273 6.91522 -0.0295735 15.6244 -13.3453 -29.7103 12.9092 0.00372239 -0.0306285 -36.3308 33.8699 -68.2878 26.5046 0.00556834 -0.0894252 12.343 -54.6964 12.1167 25.9997 -0.0467726 -0.0166804 -21.3994 -23.7294 6.40727 2.48905 0.190105 3.12053 -28.184 10.7294 -19.1592 3.68274 -2.84217e-14 0 -2.10798e-15 -6.36111e-15 10 2.55832 0 0 3.79044e-15 -3.18055e-15 10 3.22368 0.508421 1.97842 3.18055e-15 0 -0 5.21684 -0.091368 0.999158 -19.9818 0.871897 -2.3964 3.61937 0 -5.68434e-14 -24 -1.11319e-14 -3.18055e-15 2.0521 2.84217e-14 2.84217e-14 -20 4.5472e-15 9.54166e-15 3.38211 0.517263 0.756737 3.18055e-15 0 -0 5.17411 -0.084 0.313895 -20 0 9.54166e-15 3.94947 -2.84217e-14 2.84217e-14 -24 -4.77083e-15 -3.18055e-15 2.47579 1.42109e-14 -8.52651e-14 -20 -9.93923e-16 -6.36111e-15 3.36516 0.537895 -0.128947 3.18055e-15 0 -0 4.63474 -0.022105 -0.478947 -19.9748 -1.02565 2.81938 3.44238 0 2.84217e-14 -24 -3.18055e-15 -0 2.3881 1.42109e-14 0 -20 -2.78299e-15 -9.54166e-15 3.16105 0.469368 -1.20179 3.18055e-15 0 -0 4.14105 -0.022105 -1.09053 -19.7815 -3.00948 8.30515 2.75653 0 -5.68434e-14 -24 -7.95139e-16 9.54166e-15 1.74189 2.84217e-14 5.68434e-14 -20 2.78299e-15 -0 
